<?xml version="1.0" encoding="iso-8859-1"?>
<!-- Generator: Adobe Illustrator 19.0.0, SVG Export Plug-In . SVG Version: 6.00 Build 0)  -->
<svg version="1.1" id="Layer_1" xmlns="http://www.w3.org/2000/svg" xmlns:xlink="http://www.w3.org/1999/xlink" x="0px" y="0px"
	 viewBox="0 0 480 480" style="enable-background:new 0 0 480 480;" xml:space="preserve">
<g>
	<g>
		<path d="M464,300.392V208v-48v-40c0-22.056-17.944-40-40-40H320V40c0-22.056-17.944-40-40-40h-96c-22.056,0-40,17.944-40,40v40H40
			C17.944,80,0,97.944,0,120v16v72v192c0,22.056,17.944,40,40,40h230.808c21.984,24.488,53.768,40,89.192,40
			c66.168,0,120-53.832,120-120C480,338.296,474.12,317.976,464,300.392z M160,40c0-13.232,10.768-24,24-24h96
			c13.232,0,24,10.768,24,24v40h-16V40c0-4.416-3.576-8-8-8h-96c-4.424,0-8,3.584-8,8v40h-16V40z M272,48v32h-80V48H272z M16,136
			v-16c0-13.232,10.768-24,24-24h384c13.232,0,24,10.768,24,24v40v48c0,22.056-17.944,40-40,40h-5.272
			c-13.296-5.088-27.664-8-42.728-8c-15.064,0-29.432,2.912-42.728,8H280v-24c0-4.416-3.576-8-8-8h-80c-4.424,0-8,3.584-8,8v24h-80
			H64h-8c-22.056,0-40-17.944-40-40V136z M448,247.112v31.576c-6.272-6.784-13.216-12.928-20.888-18.12
			C435.064,257.664,442.192,253.056,448,247.112z M264,232v16h-64v-16H264z M96,264v24H72v-24H96z M40,424
			c-13.232,0-24-10.768-24-24V247.112C26.176,257.52,40.336,264,56,264v32c0,4.416,3.576,8,8,8h40c4.424,0,8-3.584,8-8v-32h80h80
			h16.304C259.048,285.904,240,320.728,240,360c0,23.536,6.912,45.448,18.672,64H40z M463.592,368
			c-3.904,50.96-44.632,91.688-95.592,95.592V448h-16v15.592c-28.88-2.216-54.512-16.192-72-37.232V424h-1.808
			c-12.304-15.696-20.176-34.96-21.792-56H272v-16h-15.592c3.904-50.96,44.632-91.688,95.592-95.592V272h16v-15.592
			c50.96,3.904,91.688,44.632,95.592,95.592H448v16H463.592z"/>
	</g>
</g>
<g>
	<g>
		<path d="M368,356.688V288h-16v72c0,2.12,0.84,4.16,2.344,5.656l48,48l11.312-11.312L368,356.688z"/>
	</g>
</g>
<g>
	<g>
		<rect x="352" y="208" width="16" height="16"/>
	</g>
</g>
<g>
	<g>
		<rect x="384" y="208" width="16" height="16"/>
	</g>
</g>
<g>
	<g>
		<rect x="320" y="208" width="16" height="16"/>
	</g>
</g>
<g>
</g>
<g>
</g>
<g>
</g>
<g>
</g>
<g>
</g>
<g>
</g>
<g>
</g>
<g>
</g>
<g>
</g>
<g>
</g>
<g>
</g>
<g>
</g>
<g>
</g>
<g>
</g>
<g>
</g>
</svg>
