<?xml version="1.0" encoding="iso-8859-1"?>
<!-- Generator: Adobe Illustrator 19.0.0, SVG Export Plug-In . SVG Version: 6.00 Build 0)  -->
<svg version="1.1" id="Capa_1" xmlns="http://www.w3.org/2000/svg" xmlns:xlink="http://www.w3.org/1999/xlink" x="0px" y="0px"
	 viewBox="0 0 477.884 477.884" style="enable-background:new 0 0 477.884 477.884;" xml:space="preserve">
<g>
	<g>
		<path d="M256.017,17.002c-122.334,0-221.867,91.87-221.867,204.8c0.244,46.082,16.799,90.588,46.729,125.628
			c-6.189,37.563-32.916,68.484-69.188,80.043c-8.945,2.972-13.787,12.632-10.816,21.577c2.319,6.982,8.852,11.691,16.209,11.686
			c55.505,1.958,109.914-15.779,153.6-50.074c27.207,10.568,56.146,15.974,85.333,15.94c122.334,0,221.867-91.87,221.867-204.8
			S378.351,17.002,256.017,17.002z M256.017,392.469c-28.383,0.04-56.452-5.928-82.364-17.51
			c-6.704-2.985-14.566-1.349-19.524,4.062c-19.089,18.917-42.983,32.26-69.103,38.588c16.446-20.989,27.145-45.899,31.044-72.277
			c0.848-5.169-0.725-10.442-4.267-14.302c-27.694-29.661-43.228-68.648-43.52-109.227c0-94.106,84.224-170.667,187.733-170.667
			S443.75,127.696,443.75,221.802S359.526,392.469,256.017,392.469z"/>
	</g>
</g>
<g>
</g>
<g>
</g>
<g>
</g>
<g>
</g>
<g>
</g>
<g>
</g>
<g>
</g>
<g>
</g>
<g>
</g>
<g>
</g>
<g>
</g>
<g>
</g>
<g>
</g>
<g>
</g>
<g>
</g>
</svg>
