<?xml version="1.0" encoding="iso-8859-1"?>
<!-- Generator: Adobe Illustrator 19.0.0, SVG Export Plug-In . SVG Version: 6.00 Build 0)  -->
<svg version="1.1" id="Layer_1" xmlns="http://www.w3.org/2000/svg" xmlns:xlink="http://www.w3.org/1999/xlink" x="0px" y="0px"
	 viewBox="0 0 480.006 480.006" style="enable-background:new 0 0 480.006 480.006;" xml:space="preserve">
<g>
	<g>
		<path d="M392,304.001h-70.24c-4.392-4.872-10.696-8-17.76-8c-6.168,0-11.744,2.408-16,6.24c-4.256-3.84-9.832-6.24-16-6.24
			c-6.168,0-11.744,2.408-16,6.24c-4.256-3.84-9.832-6.24-16-6.24c-6.168,0-11.744,2.408-16,6.24c-4.256-3.84-9.832-6.24-16-6.24
			c-7.064,0-13.36,3.128-17.76,8H56c-4.416,0-8,3.584-8,8v56c0,22.056,17.944,40,40,40h64v40c0,2.12,0.84,4.16,2.344,5.656
			L168,467.313v12.688h16v-16c0-2.12-0.84-4.16-2.344-5.656L168,444.689v-91.68c13.784,3.56,24,16.104,24,30.992v40h16v-16h104v72
			h16v-72h96c4.416,0,8-3.584,8-8v-56C432,321.945,414.056,304.001,392,304.001z M184,342.497c-7.072-4.104-15.256-6.496-24-6.496
			c-4.416,0-8,3.584-8,8v48H88c-13.232,0-24-10.768-24-24v-48h120V342.497z M296,320.001c0-4.408,3.592-8,8-8c4.408,0,8,3.592,8,8
			v32c0,4.408-3.592,8-8,8c-4.408,0-8-3.592-8-8V320.001z M264,320.001c0-4.408,3.592-8,8-8c4.408,0,8,3.592,8,8v32
			c0,4.408-3.592,8-8,8c-4.408,0-8-3.592-8-8V320.001z M232,320.001c0-4.408,3.592-8,8-8s8,3.592,8,8v32c0,4.408-3.592,8-8,8
			c-4.408,0-8-3.592-8-8V320.001z M200,352.001v-32c0-4.408,3.592-8,8-8s8,3.592,8,8v32c0,4.408-3.592,8-8,8
			S200,356.409,200,352.001z M416,392.001H208v-8c0-2.76-0.288-5.44-0.736-8.072c0.248,0.008,0.488,0.072,0.736,0.072
			c6.168,0,11.744-2.408,16-6.24c4.256,3.84,9.832,6.24,16,6.24c6.168,0,11.744-2.408,16-6.24c4.256,3.84,9.832,6.24,16,6.24
			c6.168,0,11.744-2.408,16-6.24c4.256,3.84,9.832,6.24,16,6.24c13.232,0,24-10.768,24-24v-32h64c13.232,0,24,10.768,24,24V392.001z
			"/>
	</g>
</g>
<g>
	<g>
		<path d="M479.16,228.417L464,198.113V78.337l10-2.584c3.536-0.92,6-4.104,6-7.752s-2.464-6.832-6-7.744l-232-60
			c-1.312-0.336-2.696-0.336-4.008,0l-232,60C2.464,61.169,0,64.353,0,68.001s2.464,6.832,6,7.744l106,27.416v112.84
			c0,3.672,2.496,6.872,6.056,7.76l50.8,12.696c-1.008,2.032-1.144,4.432-0.248,6.6c1.24,2.992,4.16,4.944,7.392,4.944h16v16
			c0,3.232,1.952,6.152,4.936,7.392c0.992,0.408,2.032,0.608,3.064,0.608c2.08,0,4.128-0.816,5.656-2.344L240,235.313l34.344,34.344
			c1.528,1.528,3.576,2.344,5.656,2.344c1.032,0,2.072-0.2,3.064-0.608c2.984-1.24,4.936-4.16,4.936-7.392v-16h16
			c3.232,0,6.152-1.952,7.392-4.936c0.896-2.176,0.76-4.568-0.248-6.6l50.8-12.696c3.56-0.896,6.056-4.096,6.056-7.768v-112.84
			l80-20.688v115.64l-15.16,30.312c-1.128,2.256-1.128,4.904,0,7.16l16,32c1.36,2.704,4.128,4.416,7.16,4.416
			c3.032,0,5.8-1.712,7.16-4.424l16-32C480.288,233.321,480.288,230.673,479.16,228.417z M208,244.689v-4.688c0-4.416-3.584-8-8-8
			h-4.688l14.296-14.296c3.936,4.648,8.792,8.464,14.44,10.936L208,244.689z M216,192.001c0-13.232,10.768-24,24-24s24,10.768,24,24
			s-10.768,24-24,24S216,205.233,216,192.001z M280,232.001c-4.416,0-8,3.584-8,8v4.688l-16.048-16.048
			c5.648-2.472,10.504-6.288,14.44-10.936l14.296,14.296H280z M352,209.753l-53.544,13.384l-20.176-20.176
			c1.008-3.504,1.72-7.128,1.72-10.96c0-22.056-17.944-40-40-40c-22.056,0-40,17.944-40,40c0,3.832,0.712,7.456,1.72,10.968
			l-20.176,20.176L128,209.753V107.297l110,28.448c0.656,0.168,1.328,0.256,2,0.256s1.344-0.088,2-0.256l110-28.448V209.753z
			 M240,119.737L39.952,68.001L240,16.265l200.048,51.736L240,119.737z M456,246.113l-7.056-14.112L456,217.889l7.056,14.112
			L456,246.113z"/>
	</g>
</g>
<g>
	<g>
		<rect x="48" y="272.001" width="16" height="16"/>
	</g>
</g>
<g>
	<g>
		<rect x="80" y="272.001" width="16" height="16"/>
	</g>
</g>
<g>
	<g>
		<rect x="112" y="272.001" width="16" height="16"/>
	</g>
</g>
<g>
</g>
<g>
</g>
<g>
</g>
<g>
</g>
<g>
</g>
<g>
</g>
<g>
</g>
<g>
</g>
<g>
</g>
<g>
</g>
<g>
</g>
<g>
</g>
<g>
</g>
<g>
</g>
<g>
</g>
</svg>
