<svg height="480pt" viewBox="0 0 480 480.00842" width="480pt" xmlns="http://www.w3.org/2000/svg"><path d="m440.003906 0h-400c-22.054687 0-39.99999975 17.945312-39.99999975 40v296c0 22.054688 17.94531275 40 39.99999975 40h240v96c0 2.566406 1.230469 4.984375 3.328125 6.496094 2.089844 1.503906 4.769531 1.917968 7.207031 1.097656l45.464844-15.160156 45.472656 15.160156c.824219.269531 1.679688.40625 2.527344.40625 1.65625 0 3.296875-.511719 4.671875-1.503906 2.097657-1.511719 3.328125-3.929688 3.328125-6.496094v-96h48c22.054688 0 40-17.945312 40-40v-296c0-22.054688-17.945312-40-40-40zm24 40v15.28125c-20.054687-3.394531-35.886718-19.226562-39.28125-39.28125h15.28125c13.230469 0 24 10.769531 24 24zm-424-24h15.28125c-3.394531 20.054688-19.226562 35.886719-39.28125 39.28125v-15.28125c0-13.230469 10.769532-24 24-24zm-24 320v-15.28125c20.054688 3.386719 35.886719 19.226562 39.28125 39.28125h-15.28125c-13.230468 0-24-10.769531-24-24zm248.871094-97.511719c2.472656-3.519531 5.035156-7.167969 6.441406-11.503906 1.464844-4.496094 1.558594-9.257813 1.65625-13.472656.085938-4.078125.175782-8.304688 1.542969-10.175781 1.402344-1.929688 5.417969-3.320313 9.296875-4.664063 3.960938-1.375 8.441406-2.929687 12.230469-5.6875 3.746093-2.726563 6.578125-6.488281 9.074219-9.800781 2.488281-3.304688 5.0625-6.71875 7.398437-7.480469 2.097656-.695313 6.113281.503906 9.976563 1.671875 4.070312 1.234375 8.6875 2.625 13.511718 2.625 4.824219 0 9.449219-1.390625 13.519532-2.625 3.855468-1.160156 7.863281-2.367188 9.976562-1.671875 2.335938.761719 4.902344 4.167969 7.390625 7.480469 2.496094 3.3125 5.335937 7.074218 9.074219 9.800781 3.785156 2.757813 8.269531 4.3125 12.222656 5.679687 3.878906 1.351563 7.898438 2.742188 9.3125 4.679688 1.367188 1.871094 1.457031 6.097656 1.542969 10.175781.089843 4.199219.191406 8.96875 1.65625 13.464844 1.410156 4.335937 3.96875 7.984375 6.441406 11.503906 2.382813 3.414063 4.863281 6.953125 4.863281 9.511719s-2.480468 6.097656-4.871094 9.511719c-2.472656 3.519531-5.03125 7.167969-6.441406 11.503906-1.464844 4.496094-1.558594 9.257813-1.65625 13.472656-.085937 4.078125-.175781 8.304688-1.542968 10.175781-1.398438 1.929688-5.414063 3.320313-9.296876 4.664063-3.960937 1.375-8.4375 2.929687-12.230468 5.6875-3.746094 2.726563-6.578125 6.488281-9.074219 9.800781-2.488281 3.304688-5.0625 6.71875-7.398437 7.480469-2.105469.695313-6.113282-.511719-9.976563-1.671875-4.070313-1.234375-8.6875-2.625-13.511719-2.625-4.824218 0-9.449218 1.390625-13.519531 2.625-3.855469 1.160156-7.863281 2.375-9.976563 1.671875-2.335937-.761719-4.902343-4.167969-7.390624-7.480469-2.496094-3.3125-5.335938-7.074218-9.074219-9.800781-3.78125-2.757813-8.269531-4.3125-12.222657-5.679687-3.878906-1.351563-7.894531-2.742188-9.3125-4.679688-1.367187-1.871094-1.457031-6.097656-1.542968-10.175781-.089844-4.199219-.191406-8.96875-1.65625-13.464844-1.410156-4.335937-3.96875-7.984375-6.441406-11.503906-2.382813-3.414063-4.863282-6.953125-4.863282-9.511719s2.480469-6.097656 4.871094-9.511719zm73.65625 209.925781c-1.648438-.542968-3.414062-.542968-5.0625 0l-37.464844 12.480469v-133.847656c3.015625 3.554687 6.578125 6.847656 11.558594 8.464844 6.890625 2.230469 13.601562.207031 19.53125-1.566407 3.320312-1 6.445312-1.945312 8.910156-1.945312s5.59375.945312 8.90625 1.9375c4.0625 1.222656 8.492188 2.558594 13.09375 2.558594 2.113282 0 4.265625-.28125 6.433594-.984375 4.984375-1.617188 8.550781-4.917969 11.566406-8.464844v133.847656zm53.472656-135.429687c.496094-.175781.929688-.351563 1.441406-.527344 5.917969-2.050781 12.632813-4.378906 16.992188-10.367187 4.320312-5.9375 4.472656-13.011719 4.605469-19.25.074219-3.40625.144531-6.617188.875-8.871094.664062-2.058594 2.4375-4.585938 4.316406-7.257812 3.457031-4.949219 7.769531-11.09375 7.769531-18.710938s-4.3125-13.761719-7.777344-18.703125c-1.871093-2.671875-3.644531-5.199219-4.316406-7.257813-.730468-2.253906-.800781-5.472656-.875-8.863281-.136718-6.238281-.285156-13.320312-4.605468-19.246093-4.351563-5.992188-11.074219-8.320313-17-10.386719-3.183594-1.101563-6.195313-2.144531-8.058594-3.503907-1.816406-1.320312-3.703125-3.832031-5.710938-6.496093-3.800781-5.039063-8.105468-10.75-15.230468-13.0625-6.875-2.214844-13.601563-.199219-19.53125 1.566406-3.300782 1.007813-6.429688 1.953125-8.894532 1.953125s-5.589844-.945312-8.902344-1.9375c-5.929687-1.789062-12.648437-3.804688-19.53125-1.574219-7.132812 2.3125-11.4375 8.023438-15.230468 13.0625-2 2.664063-3.894532 5.167969-5.710938 6.496094-1.863281 1.359375-4.871094 2.402344-8.058594 3.503906-.40625.144531-.839843.3125-1.253906.457031h-125.3125v16h106.648438c-1.382813 4.367188-1.59375 8.945313-1.679688 13.167969-.074218 3.410157-.144531 6.617188-.871094 8.871094-.664062 2.058594-2.441406 4.585937-4.320312 7.257813-3.464844 4.933593-7.777344 11.078124-7.777344 18.695312s4.3125 13.761719 7.777344 18.703125c1.871094 2.671875 3.648438 5.199219 4.320312 7.257813.726563 2.253906.796876 5.472656.871094 8.863281.136719 6.238281.289063 13.320312 4.609375 19.246093 4.351563 5.992188 11.070313 8.320313 17 10.386719.503907.175781.941407.351563 1.429688.519531v47.023438h-208.558594c-3.632813-28.894531-26.554687-51.816406-55.449219-55.449219v-233.101562c28.894532-3.632813 51.816406-26.554688 55.449219-55.449219h337.109375c3.625 28.894531 26.554688 51.816406 55.449219 55.449219v233.109375c-28.894531 3.625-51.816407 26.554687-55.449219 55.449218h-16.558594zm48 47.015625h-15.28125c3.386719-20.054688 19.226563-35.886719 39.28125-39.28125v15.28125c0 13.230469-10.769531 24-24 24zm0 0"/><path d="m336.003906 304c30.878906 0 56-25.128906 56-56s-25.121094-56-56-56-56 25.128906-56 56 25.121094 56 56 56zm0-96c22.054688 0 40 17.945312 40 40s-17.945312 40-40 40c-22.054687 0-40-17.945312-40-40s17.945313-40 40-40zm0 0"/><path d="m96.003906 64h288v16h-288zm0 0"/><path d="m144.003906 104h192v16h-192zm0 0"/><path d="m56.003906 264h160v16h-160zm0 0"/><path d="m88.003906 304h96v16h-96zm0 0"/><path d="m344.003906 352h16v16h-16zm0 0"/><path d="m344.003906 384h16v16h-16zm0 0"/><path d="m344.003906 416h16v16h-16zm0 0"/></svg>