<?xml version="1.0" encoding="iso-8859-1"?>
<!-- Generator: Adobe Illustrator 19.0.0, SVG Export Plug-In . SVG Version: 6.00 Build 0)  -->
<svg version="1.1" id="Capa_1" xmlns="http://www.w3.org/2000/svg" xmlns:xlink="http://www.w3.org/1999/xlink" x="0px" y="0px"
	 viewBox="0 0 480 480" style="enable-background:new 0 0 480 480;" xml:space="preserve">
<g>
	<g>
		<path d="M256,200h-32c-4.424,0-8,3.584-8,8v80c0,4.416,3.576,8,8,8h32c4.424,0,8-3.584,8-8v-80C264,203.584,260.424,200,256,200z
			 M248,280h-16v-64h16V280z"/>
	</g>
</g>
<g>
	<g>
		<path d="M240,144c-13.232,0-24,10.768-24,24s10.768,24,24,24s24-10.768,24-24S253.232,144,240,144z M240,176c-4.416,0-8-3.592-8-8
			s3.584-8,8-8s8,3.592,8,8S244.416,176,240,176z"/>
	</g>
</g>
<g>
	<g>
		<rect width="72" height="16"/>
	</g>
</g>
<g>
	<g>
		<rect y="32" width="72" height="16"/>
	</g>
</g>
<g>
	<g>
		<rect y="64" width="72" height="16"/>
	</g>
</g>
<g>
	<g>
		<rect y="136" width="72" height="16"/>
	</g>
</g>
<g>
	<g>
		<rect y="168" width="72" height="16"/>
	</g>
</g>
<g>
	<g>
		<rect y="200" width="72" height="16"/>
	</g>
</g>
<g>
	<g>
		<rect x="408" width="72" height="16"/>
	</g>
</g>
<g>
	<g>
		<rect x="408" y="32" width="72" height="16"/>
	</g>
</g>
<g>
	<g>
		<rect x="408" y="64" width="72" height="16"/>
	</g>
</g>
<g>
	<g>
		<rect x="408" y="136" width="72" height="16"/>
	</g>
</g>
<g>
	<g>
		<rect x="408" y="168" width="72" height="16"/>
	</g>
</g>
<g>
	<g>
		<rect x="408" y="200" width="72" height="16"/>
	</g>
</g>
<g>
	<g>
		<rect y="272" width="72" height="16"/>
	</g>
</g>
<g>
	<g>
		<rect y="304" width="72" height="16"/>
	</g>
</g>
<g>
	<g>
		<rect y="336" width="72" height="16"/>
	</g>
</g>
<g>
	<g>
		<path d="M472,312h-80c-2.216,0-4.216,0.896-5.664,2.352l-47.976,47.976c-1.392,1.392-2.24,3.304-2.312,5.408L304,354.624v-39.312
			l45.656-45.656C351.16,268.16,352,266.12,352,264v-24.408c17.952-2.016,32-17.112,32-35.592c0-15.312-9.656-28.336-23.16-33.528
			l4.816-4.816C367.16,164.16,368,162.12,368,160v-56c0-39.696-32.296-72-72-72h-0.64C284,12.408,262.8,0,240,0h-56
			c-4.424,0-8,3.584-8,8c0,8.336,1.6,16.48,4.704,24.072C142.52,33.808,112,65.4,112,104v56c0,2.12,0.84,4.16,2.344,5.656
			l4.816,4.816C105.656,175.664,96,188.688,96,204c0,18.48,14.048,33.576,32,35.592V264c0,2.12,0.84,4.16,2.344,5.656L176,315.312
			v39.312L4.968,424.592C1.96,425.824,0,428.752,0,432v40c0,4.416,3.576,8,8,8h336h128c4.424,0,8-3.584,8-8V320
			C480,315.584,476.424,312,472,312z M368,204c0,9.664-6.88,17.736-16,19.6v-39.2C361.12,186.264,368,194.336,368,204z M128,223.592
			c-9.12-1.856-16-9.928-16-19.592s6.88-17.736,16-19.6V223.592z M128,156.688V104c0-30.88,25.128-56,56-56h10.08
			c2.984,0,5.72-1.656,7.096-4.304c1.376-2.648,1.168-5.832-0.528-8.28c-4.112-5.872-6.816-12.472-7.984-19.416H240
			c18.384,0,35.384,10.768,43.312,27.44c1.328,2.784,4.144,4.56,7.224,4.56H296c30.872,0,56,25.12,56,56v52.688l-8,8l-8-8V104
			c0-2.248-0.944-4.392-2.6-5.904c-1.664-1.512-3.888-2.232-6.128-2.064L240,103.968l-87.272-7.936
			c-2.224-0.16-4.456,0.544-6.128,2.064c-1.656,1.512-2.6,3.656-2.6,5.904v52.688l-8,8L128,156.688z M144,260.688V232v-52.688
			l13.656-13.656C159.16,164.16,160,162.12,160,160v-47.24l79.272,7.208c0.488,0.04,0.968,0.04,1.456,0L320,112.76V160
			c0,2.12,0.84,4.16,2.344,5.656L336,179.312V232v28.688L268.688,328h-57.376L144,260.688z M288,331.312v24.568l-48,34.288
			l-48-34.288v-24.568l10.344,10.344C203.84,343.16,205.872,344,208,344h64c2.128,0,4.16-0.84,5.656-2.344L288,331.312z M336,464H16
			v-26.632l166.944-68.296l52.408,37.44c1.392,0.992,3.016,1.488,4.648,1.488s3.256-0.496,4.648-1.488l52.408-37.44L336,385.008V464
			z M384,339.312V360h-20.688L384,339.312z M464,464H352v-84.36V376h40c4.424,0,8-3.584,8-8v-40h64V464z"/>
	</g>
</g>
<g>
	<g>
		<rect x="368" y="392" width="80" height="16"/>
	</g>
</g>
<g>
	<g>
		<rect x="368" y="424" width="80" height="16"/>
	</g>
</g>
<g>
	<g>
		<rect x="416" y="360" width="32" height="16"/>
	</g>
</g>
<g>
	<g>
		<rect x="232" y="424" width="16" height="16"/>
	</g>
</g>
<g>
</g>
<g>
</g>
<g>
</g>
<g>
</g>
<g>
</g>
<g>
</g>
<g>
</g>
<g>
</g>
<g>
</g>
<g>
</g>
<g>
</g>
<g>
</g>
<g>
</g>
<g>
</g>
<g>
</g>
</svg>
