<?xml version="1.0" encoding="iso-8859-1"?>
<!-- Generator: Adobe Illustrator 16.0.0, SVG Export Plug-In . SVG Version: 6.00 Build 0)  -->
<!DOCTYPE svg PUBLIC "-//W3C//DTD SVG 1.1//EN" "http://www.w3.org/Graphics/SVG/1.1/DTD/svg11.dtd">
<svg version="1.1" id="Capa_1" xmlns="http://www.w3.org/2000/svg" xmlns:xlink="http://www.w3.org/1999/xlink" x="0px" y="0px"
	 width="950px" height="950px" viewBox="0 0 950 950" style="enable-background:new 0 0 950 950;" xml:space="preserve">
<g>
	<g>
		<path d="M925.164,790.713v-217.4c-2.041,0.226-4.11,0.352-6.209,0.352H776.812V600.3c0,13.969-4.555,27.327-12.824,37.614
			c-9.415,11.713-22.949,18.431-37.131,18.431h-58.229c-14.183,0-27.717-6.719-37.131-18.431
			c-8.271-10.288-12.824-23.646-12.824-37.614v-26.636H331.328V600.3c0,13.969-4.554,27.327-12.824,37.614
			c-9.415,11.713-22.949,18.431-37.131,18.431h-58.229c-14.183,0-27.717-6.719-37.131-18.431
			c-8.27-10.288-12.824-23.646-12.824-37.614v-26.636H31.046c-2.1,0-4.169-0.126-6.209-0.352v217.4
			c0,17.146,13.9,31.047,31.046,31.047h838.235C911.264,821.759,925.164,807.86,925.164,790.713z"/>
		<path d="M24.836,548.042c2.006,0.407,4.083,0.622,6.209,0.622h142.142V497.03c0-13.969,4.554-27.328,12.824-37.615
			c9.415-11.713,22.949-18.43,37.131-18.43h58.229c14.183,0,27.717,6.718,37.131,18.43c8.271,10.288,12.824,23.647,12.824,37.615
			v51.635H618.67V497.03c0-13.969,4.554-27.328,12.824-37.615c9.415-11.713,22.949-18.43,37.131-18.43h58.229
			c14.184,0,27.718,6.718,37.132,18.43c8.27,10.288,12.823,23.647,12.823,37.615v51.635h142.143c2.126,0,4.203-0.215,6.209-0.622
			c14.174-2.877,24.84-15.403,24.84-30.424V325.027c0-17.146-13.899-31.046-31.046-31.046H723.401v-12.5v-12.5v-87.699
			c0-29.248-23.795-53.042-53.042-53.042H279.641c-29.247,0-53.042,23.794-53.042,53.042v87.699v12.5v12.5H31.046
			C13.9,293.981,0,307.881,0,325.027v192.592C0,532.639,10.666,545.166,24.836,548.042z M276.599,281.482v-12.5v-66.167
			c11.012,15.659,32.91,26.528,57.678,26.528c10.657,0,20.782-2.015,29.738-5.557c11.002-4.352,23.336-4.352,34.34,0
			c8.955,3.542,19.079,5.557,29.737,5.557s20.783-2.015,29.738-5.557c11.002-4.352,23.336-4.352,34.339,0
			c8.956,3.542,19.081,5.557,29.738,5.557c10.658,0,20.783-2.015,29.738-5.557c11.002-4.352,23.337-4.352,34.339,0
			c8.956,3.542,19.08,5.557,29.737,5.557c24.769,0,46.666-10.869,57.679-26.528v66.167v12.5v12.5H276.599V281.482z"/>
		<path d="M726.857,631.345c13.782,0,24.955-13.9,24.955-31.046v-26.636v-12.5v-12.5v-51.635c0-17.146-11.173-31.046-24.955-31.046
			h-58.229c-13.783,0-24.956,13.9-24.956,31.046v51.635v12.5v12.5v26.636c0,17.146,11.173,31.046,24.956,31.046H726.857z"/>
		<path d="M281.373,631.345c13.783,0,24.956-13.9,24.956-31.046v-26.636v-12.5v-12.5v-51.635c0-17.146-11.173-31.046-24.956-31.046
			h-58.229c-13.783,0-24.956,13.9-24.956,31.046v51.635v12.5v12.5v26.636c0,17.146,11.173,31.046,24.956,31.046H281.373z"/>
	</g>
</g>
<g>
</g>
<g>
</g>
<g>
</g>
<g>
</g>
<g>
</g>
<g>
</g>
<g>
</g>
<g>
</g>
<g>
</g>
<g>
</g>
<g>
</g>
<g>
</g>
<g>
</g>
<g>
</g>
<g>
</g>
</svg>
