<?xml version="1.0" encoding="iso-8859-1"?>
<!-- Generator: Adobe Illustrator 18.0.0, SVG Export Plug-In . SVG Version: 6.00 Build 0)  -->
<!DOCTYPE svg PUBLIC "-//W3C//DTD SVG 1.1//EN" "http://www.w3.org/Graphics/SVG/1.1/DTD/svg11.dtd">
<svg version="1.1" id="Capa_1" xmlns="http://www.w3.org/2000/svg" xmlns:xlink="http://www.w3.org/1999/xlink" x="0px" y="0px"
	 viewBox="0 0 490 490" style="enable-background:new 0 0 490 490;" xml:space="preserve">
<g>
	<path d="M480,191.962h-47.061V82.5c0-5.522-4.478-10-10-10H10c-5.523,0-10,4.478-10,10v276.751c0,5.522,4.477,10,10,10h170.673
		V397.5H158c-5.523,0-10,4.478-10,10c0,5.523,4.477,10,10,10h123.556c5.523,0,10-4.477,10-10c0-5.522-4.477-10-10-10h-22.672
		v-28.249h57.47V407.5c0,5.523,4.478,10,10,10H480c5.522,0,10-4.477,10-10V201.962C490,196.439,485.522,191.962,480,191.962z
		 M470,349.251H336.354V211.962H470V349.251z M412.939,92.5v99.462h-86.586c-5.522,0-10,4.477-10,10v70.046H20V92.5H412.939z
		 M238.884,397.5h-38.211v-28.249h38.211V397.5z M20,349.251v-57.243h296.354v57.243H20z M336.354,397.5v-28.249H470V397.5H336.354z
		"/>
	<circle cx="403.177" cy="383.375" r="6.682"/>
	<circle cx="216.47" cy="318.583" r="8.353"/>
</g>
<g>
</g>
<g>
</g>
<g>
</g>
<g>
</g>
<g>
</g>
<g>
</g>
<g>
</g>
<g>
</g>
<g>
</g>
<g>
</g>
<g>
</g>
<g>
</g>
<g>
</g>
<g>
</g>
<g>
</g>
</svg>
